<svg xmlns="http://www.w3.org/2000/svg" viewBox="0 0 64 64">
  <rect width="64" height="64" rx="15" fill="#17271f"/>
  <circle cx="32" cy="32" r="22.5" fill="none" stroke="#b6985c" stroke-width="1.5"/>
  <path
    fill="#f7f2e9"
    d="M23 16.5h10.1c8.1 0 12.1 2.7 12.1 7.9 0 3.8-2.3 6.3-6.8 7.4 5.5.8 8.3 3.5 8.3 8.1 0 5.2-4.2 7.8-12.7 7.8H23v-1.5c2.4-.2 3.6-1.2 3.6-3V21c0-1.9-1.2-2.9-3.6-3v-1.5Zm8.7 14.6h2c4.2 0 6.3-2.1 6.3-6.3 0-4.4-2.1-6.6-6.4-6.6h-1.9v12.9Zm0 1.8v10.4c0 1.8.9 2.7 2.8 2.7h.6c4.2 0 6.3-2.1 6.3-6.2 0-4.6-2.5-6.9-7.4-6.9h-2.3Z"
  />
</svg>
